<?xml version="1.0" encoding="utf-8"?>
<!DOCTYPE svg PUBLIC "-//W3C//DTD SVG 1.1//EN" "http://www.w3.org/Graphics/SVG/1.1/DTD/svg11.dtd">
<svg version="1.1" baseProfile="full"
 xmlns="http://www.w3.org/2000/svg"
 xmlns:xlink="http://www.w3.org/1999/xlink"
 xmlns:ev="http://www.w3.org/2001/xml-events" width="100" height="100">
<path fill-rule="evenodd"  fill="rgb( 32, 32, 32 )"
 d="M17.140,38.018 C17.140,38.003 17.140,60.987 17.140,60.987 C17.140,60.987 32.062,60.987 32.062,60.987 C32.062,60.987 50.713,80.128 50.713,80.128 C50.713,80.128 50.713,18.878 50.713,18.878 C50.713,18.878 32.062,38.018 32.062,38.018 C32.062,38.018 17.140,38.018 17.140,38.018 ZM67.500,49.503 C67.500,42.744 63.697,36.908 58.174,34.086 C58.174,34.086 58.174,64.920 58.174,64.920 C63.697,62.097 67.500,56.262 67.500,49.503 ZM58.174,15.932 C58.174,15.932 58.174,23.831 58.174,23.831 C68.958,27.125 76.826,37.368 76.826,49.503 C76.826,61.638 68.958,71.881 58.174,75.175 C58.174,75.175 58.174,83.074 58.174,83.074 C73.120,79.586 84.286,65.896 84.286,49.503 C84.286,33.110 73.120,19.416 58.174,15.932 Z"/>
</svg>