<?xml version="1.0" encoding="utf-8"?>
<!DOCTYPE svg PUBLIC "-//W3C//DTD SVG 1.1//EN" "http://www.w3.org/Graphics/SVG/1.1/DTD/svg11.dtd">
<svg version="1.1" baseProfile="full"
 xmlns="http://www.w3.org/2000/svg"
 xmlns:xlink="http://www.w3.org/1999/xlink"
 xmlns:ev="http://www.w3.org/2001/xml-events" width="100" height="100">
<path fill-rule="evenodd"  fill="rgb( 32, 32, 32 )"
 d="M80.646,41.256 C77.808,26.818 65.169,15.928 50.000,15.928 C37.951,15.928 27.512,22.806 22.297,32.867 C9.763,34.224 -0.001,44.907 -0.001,57.893 C-0.001,71.799 11.193,83.072 24.999,83.072 C24.999,83.072 79.167,83.072 79.167,83.072 C90.672,83.072 100.001,73.678 100.001,62.090 C100.001,51.011 91.448,42.034 80.646,41.256 ZM79.167,74.679 C79.167,74.679 24.999,74.679 24.999,74.679 C15.794,74.679 8.332,67.163 8.332,57.893 C8.332,48.622 15.794,41.107 24.999,41.107 C24.999,41.107 27.968,41.107 27.968,41.107 C30.691,31.424 39.513,24.321 50.000,24.321 C62.657,24.321 72.917,34.655 72.917,47.402 C72.917,47.402 72.917,49.500 72.917,49.500 C72.917,49.500 79.167,49.500 79.167,49.500 C86.071,49.500 91.668,55.137 91.668,62.090 C91.668,69.042 86.071,74.679 79.167,74.679 Z"/>
</svg>