<?xml version="1.0" encoding="utf-8"?>
<!DOCTYPE svg PUBLIC "-//W3C//DTD SVG 1.1//EN" "http://www.w3.org/Graphics/SVG/1.1/DTD/svg11.dtd">
<svg version="1.1" baseProfile="full"
 xmlns="http://www.w3.org/2000/svg"
 xmlns:xlink="http://www.w3.org/1999/xlink"
 xmlns:ev="http://www.w3.org/2001/xml-events" width="100" height="100">
<path fill-rule="evenodd"  fill="rgb( 32, 32, 32 )"
 d="M62.815,54.635 C62.815,54.635 62.815,82.413 62.815,82.413 C62.815,83.250 73.749,83.250 73.749,82.413 C73.749,82.413 73.749,54.635 73.749,54.635 C73.749,53.795 62.815,53.795 62.815,54.635 ZM81.912,61.271 C81.912,61.271 81.912,49.288 81.912,49.288 C81.912,30.778 68.498,17.343 50.016,17.343 C31.532,17.343 18.118,30.778 18.118,49.288 C18.118,49.288 18.118,61.208 18.118,61.208 C17.345,63.127 17.146,65.638 17.146,68.399 C17.146,74.410 18.055,79.280 23.890,79.280 C23.890,79.280 23.890,57.518 23.890,57.518 C23.571,57.518 23.271,57.538 22.980,57.568 C22.980,57.568 22.980,49.288 22.980,49.288 C22.980,33.373 34.098,22.259 50.016,22.259 C65.932,22.259 77.047,33.373 77.047,49.288 C77.047,49.288 77.047,57.538 77.047,57.538 C76.748,57.508 76.434,57.488 76.103,57.488 C76.103,57.488 76.103,79.250 76.103,79.250 C81.937,79.250 82.847,74.378 82.847,68.372 C82.847,65.653 82.654,63.175 81.912,61.271 ZM26.242,54.357 C26.242,54.357 26.242,82.136 26.242,82.136 C26.242,82.973 37.178,82.973 37.178,82.136 C37.178,82.136 37.178,54.357 37.178,54.357 C37.178,53.521 26.242,53.521 26.242,54.357 Z"/>
</svg>