<?xml version="1.0" encoding="utf-8"?>
<!DOCTYPE svg PUBLIC "-//W3C//DTD SVG 1.1//EN" "http://www.w3.org/Graphics/SVG/1.1/DTD/svg11.dtd">
<svg version="1.1" baseProfile="full"
 xmlns="http://www.w3.org/2000/svg"
 xmlns:xlink="http://www.w3.org/1999/xlink"
 xmlns:ev="http://www.w3.org/2001/xml-events" width="100" height="100">
<path fill-rule="evenodd"  fill="rgb( 66, 133, 244 )"
 d="M50.000,-0.002 C77.616,-0.002 100.002,22.384 100.002,50.000 C100.002,77.616 77.616,100.002 50.000,100.002 C22.384,100.002 -0.002,77.616 -0.002,50.000 C-0.002,22.384 22.384,-0.002 50.000,-0.002 Z"/>
<path fill-rule="evenodd"  fill="rgb( 255, 255, 255 )"
 d="M66.986,58.123 C66.986,58.123 66.986,38.675 66.986,38.675 C70.713,40.222 73.211,44.233 73.211,48.429 C73.211,52.622 70.713,56.579 66.986,58.123 ZM44.144,58.123 C44.144,58.123 44.144,69.382 44.144,69.382 C44.144,70.726 43.443,71.430 42.122,71.430 C42.122,71.430 37.339,71.430 37.339,71.430 C36.019,71.430 34.800,70.726 34.800,69.382 C34.800,69.382 34.800,58.123 34.800,58.123 C34.800,58.123 31.685,58.123 31.685,58.123 C29.921,58.123 28.571,57.079 28.571,55.289 C28.571,55.289 28.571,42.376 28.571,42.376 C28.571,40.587 29.921,39.699 31.685,39.699 C31.685,39.699 49.336,39.699 49.336,39.699 C49.336,39.699 62.833,29.463 62.833,29.463 C62.833,29.463 62.833,68.359 62.833,68.359 C62.833,68.359 49.336,58.123 49.336,58.123 C49.336,58.123 44.144,58.123 44.144,58.123 Z"/>
</svg>